HIERARCHY
ROOT Pelvis
{
	OFFSET 0.000000 0.000000 0.000000
	CHANNELS 6 Xposition Yposition Zposition Xrotation Yrotation Zrotation
	JOINT LeftUpLeg_virtual
	{
		OFFSET 0.000000 0.000000 0.000000
		CHANNELS 3 Xrotation Yrotation Zrotation
		JOINT LeftUpLeg
		{
			OFFSET 18.735201 -5.666702 -4.541200
			CHANNELS 3 Xrotation Yrotation Zrotation
			JOINT LeftLeg
			{
				OFFSET -0.021200 -31.938179 0.493100
				CHANNELS 3 Xrotation Yrotation Zrotation
				JOINT LeftFoot
				{
					OFFSET 0.021200 -31.938179 -4.336299
					CHANNELS 3 Xrotation Yrotation Zrotation
					JOINT LeftToeBase
					{
						OFFSET 0.943001 -26.722000 15.023500
						CHANNELS 3 Xrotation Yrotation Zrotation
						End Site
						{
							OFFSET 0 0 0
						}
					}
				}
			}
		}
	}
	JOINT RightUpLeg_virtual
	{
		OFFSET 0.000000 0.000000 0.000000
		CHANNELS 3 Xrotation Yrotation Zrotation
		JOINT RightUpLeg
		{
			OFFSET -18.735201 -5.666702 -4.541200
			CHANNELS 3 Xrotation Yrotation Zrotation
			JOINT RightLeg
			{
				OFFSET 0.018946 -31.938133 0.493100
				CHANNELS 3 Xrotation Yrotation Zrotation
				JOINT RightFoot
				{
					OFFSET -0.018946 -31.938126 -4.336299
					CHANNELS 3 Xrotation Yrotation Zrotation
					JOINT RightToeBase
					{
						OFFSET -0.943001 -26.722004 15.023500
						CHANNELS 3 Xrotation Yrotation Zrotation
						End Site
						{
							OFFSET 0 0 0
						}
					}
				}
			}
		}
	}
	JOINT Hips_virtual
	{
		OFFSET 0.000000 0.000000 0.000000
		CHANNELS 3 Xrotation Yrotation Zrotation
		JOINT Hips
		{
			OFFSET -0.000000 -0.000000 -0.000000
			CHANNELS 3 Xrotation Yrotation Zrotation
			JOINT Spine
			{
				OFFSET 0.000000 10.199997 -0.299500
				CHANNELS 3 Xrotation Yrotation Zrotation
				JOINT Spine1
				{
					OFFSET 0.000000 11.900002 -1.516600
					CHANNELS 3 Xrotation Yrotation Zrotation
					JOINT Spine2
					{
						OFFSET 0.000000 13.600006 -2.842500
						CHANNELS 3 Xrotation Yrotation Zrotation
						JOINT Neck_virtual
						{
							OFFSET 0.000000 0.000000 0.000000
							CHANNELS 3 Xrotation Yrotation Zrotation
							JOINT Neck
							{
								OFFSET 0.000000 9.624100 -2.890100
								CHANNELS 3 Xrotation Yrotation Zrotation
								JOINT Head
								{
									OFFSET 0.000000 14.068802 -1.351900
									CHANNELS 3 Xrotation Yrotation Zrotation
									End Site
									{
										OFFSET 0 0 0
									}
								}
							}
						}
						JOINT LeftShoulder_virtual
						{
							OFFSET 0.000000 0.000000 0.000000
							CHANNELS 3 Xrotation Yrotation Zrotation
							JOINT LeftShoulder
							{
								OFFSET 15.263000 10.923401 -0.547700
								CHANNELS 3 Xrotation Yrotation Zrotation
								JOINT LeftArm
								{
									OFFSET 25.438599 -2.830597 -13.032500
									CHANNELS 3 Xrotation Yrotation Zrotation
									JOINT LeftForeArm
									{
										OFFSET 29.960503 0.000000 0.000000
										CHANNELS 3 Xrotation Yrotation Zrotation
										JOINT LeftHand
										{
											OFFSET 27.849251 0.000000 0.000000
											CHANNELS 3 Xrotation Yrotation Zrotation
											End Site
											{
												OFFSET 0 0 0
											}
										}
									}
								}
							}
						}
						JOINT RightShoulder_virtual
						{
							OFFSET 0.000000 0.000000 0.000000
							CHANNELS 3 Xrotation Yrotation Zrotation
							JOINT RightShoulder
							{
								OFFSET -15.263000 10.923401 -0.547700
								CHANNELS 3 Xrotation Yrotation Zrotation
								JOINT RightArm
								{
									OFFSET -25.438599 -2.830597 -13.032500
									CHANNELS 3 Xrotation Yrotation Zrotation
									JOINT RightForeArm
									{
										OFFSET -29.960503 0.000000 0.000000
										CHANNELS 3 Xrotation Yrotation Zrotation
										JOINT RightHand
										{
											OFFSET -27.849251 0.000000 0.000000
											CHANNELS 3 Xrotation Yrotation Zrotation
											End Site
											{
												OFFSET 0 0 0
											}
										}
									}
								}
							}
						}
					}
				}
			}
		}
	}
}
MOTION
Frames: 11
Frame Time: 0.03333333
-1.424684 93.289635 6.909481 0.000000 0.000000 0.000000 -6.527454 7.410248 -0.349754 -20.904682 13.687585 14.714452 29.425339 0.550778 5.262616 -4.541022 -11.616656 -13.597488 0.000000 0.000000 0.000000 -6.527454 7.410248 -0.349754 6.448818 -9.661493 6.099246 18.268615 -9.768504 -6.741821 -17.302128 -16.467006 4.728461 0.000000 0.000000 0.000000 -6.527454 7.410248 -0.349754 0.000001 0.000000 0.000000 2.729955 1.603070 2.350307 2.229757 0.462799 2.709335 0.000000 0.000000 0.000000 1.815967 0.462785 2.663380 4.829822 -0.940468 -0.444808 0.000000 0.000000 0.000000 1.815967 0.462785 2.663380 0.980235 -16.729756 -12.817469 1.380168 -1.285204 -71.138701 0.000001 -0.000000 -0.000002 0.000000 0.000000 0.000000 1.815967 0.462785 2.663380 0.966137 8.437345 16.887346 28.204747 8.686314 58.059757 0.000000 3.688153 -0.000009 0.000000 0.000000 0.000000 
-1.406846 93.345757 6.898270 0.000000 0.000000 0.000000 -6.289860 6.877429 -0.433459 -20.757150 13.745972 14.691525 29.169078 0.384218 5.183725 -4.531263 -10.939913 -13.546213 0.000000 0.000000 0.000000 -6.289860 6.877429 -0.433459 6.110756 -9.683704 5.902743 18.127588 -9.776555 -6.692406 -17.055517 -15.878137 4.814621 0.000000 0.000000 0.000000 -6.289860 6.877429 -0.433459 0.000000 0.000000 0.000000 2.705387 1.575671 2.339688 2.274833 0.425904 2.707981 0.000000 0.000000 0.000000 1.839811 0.425765 2.655625 4.733309 -0.880695 -0.422079 0.000000 0.000000 0.000000 1.839811 0.425765 2.655625 0.974911 -16.800882 -12.868812 1.435873 -0.692811 -71.334291 0.000000 0.000000 -0.000004 0.000000 0.000000 0.000000 1.839811 0.425765 2.655625 0.974205 8.465968 16.811911 28.086913 7.872550 58.190439 -0.000005 3.162834 -0.000000 0.000000 0.000000 0.000000 
-1.397336 93.400230 6.877874 0.000000 0.000000 0.000000 -6.052454 6.301748 -0.533038 -20.618630 13.799765 14.682946 28.937384 0.202574 5.118390 -4.534444 -10.210523 -13.494681 0.000000 0.000000 0.000000 -6.052454 6.301748 -0.533038 5.750863 -9.700218 5.712726 17.993254 -9.786345 -6.627586 -16.799255 -15.249584 4.888053 0.000000 0.000000 0.000000 -6.052454 6.301748 -0.533038 0.000000 0.000000 0.000000 2.684839 1.557384 2.332864 2.323626 0.402819 2.709165 0.000000 0.000000 0.000000 1.868223 0.402405 2.651737 4.631766 -0.821766 -0.396594 0.000000 0.000000 0.000000 1.868223 0.402405 2.651737 0.973021 -16.881875 -12.893318 1.489844 -0.193283 -71.539094 -0.000001 -0.000000 0.000014 0.000000 0.000000 0.000000 1.868223 0.402405 2.651737 0.974404 8.574765 16.795625 27.644525 6.868328 58.342124 0.000002 2.537503 0.000004 0.000000 0.000000 0.000000 
-1.395986 93.451416 6.849102 0.000000 0.000000 0.000000 -5.818347 5.694658 -0.648556 -20.496691 13.849277 14.692792 28.739872 0.011810 5.067786 -4.555552 -9.448478 -13.444492 0.000000 0.000000 0.000000 -5.818347 5.694658 -0.648556 5.376719 -9.708893 5.535470 17.865550 -9.798122 -6.546727 -16.537462 -14.594287 4.945634 0.000000 0.000000 0.000000 -5.818347 5.694658 -0.648556 0.000000 0.000000 0.000000 2.667760 1.545346 2.330310 2.374961 0.388697 2.715268 0.000000 0.000000 0.000000 1.900021 0.387847 2.652640 4.527800 -0.763773 -0.368853 0.000000 0.000000 0.000000 1.900021 0.387847 2.652640 0.974776 -16.968719 -12.889545 1.560685 0.185206 -71.747797 -0.000001 -0.000003 -0.000010 0.000000 0.000000 0.000000 1.900021 0.387847 2.652640 0.968010 8.730542 16.828623 26.972487 5.818285 58.456106 0.000002 1.888787 -0.000032 0.000000 0.000000 0.000000 
-1.401939 93.498352 6.812853 0.000000 0.000000 0.000000 -5.590034 5.065863 -0.779199 -20.395146 13.897665 14.719104 28.588057 -0.178464 5.031843 -4.612314 -8.672768 -13.381324 0.000000 0.000000 0.000000 -5.590034 5.065863 -0.779199 4.995611 -9.709685 5.373680 17.743030 -9.811901 -6.448520 -16.272847 -13.920745 4.985564 0.000000 0.000000 0.000000 -5.590034 5.065863 -0.779199 0.000000 0.000000 0.000000 2.653252 1.536694 2.333999 2.427194 0.378845 2.725930 0.000000 0.000000 0.000000 1.933557 0.377381 2.658369 4.424562 -0.706809 -0.338906 0.000000 0.000000 0.000000 1.933557 0.377381 2.658369 0.979849 -17.054149 -12.860019 1.661559 0.422353 -71.953844 0.000001 -0.000003 -0.000005 0.000000 0.000000 0.000000 1.933557 0.377381 2.658369 0.957081 8.904104 16.894352 26.167812 4.868370 58.493856 -0.000005 1.292163 -0.000020 0.000000 0.000000 0.000000 
-1.413818 93.541405 6.769949 0.000000 0.000000 0.000000 -5.368555 4.424628 -0.922394 -20.313298 13.947856 14.759559 28.479582 -0.362740 5.007154 -4.707730 -7.898406 -13.296676 0.000000 0.000000 0.000000 -5.368555 4.424628 -0.922394 4.614250 -9.704131 5.224554 17.621763 -9.827179 -6.327261 -16.006548 -13.234321 5.004909 0.000000 0.000000 0.000000 -5.368555 4.424628 -0.922394 0.000000 0.000000 0.000000 2.640249 1.528969 2.339616 2.478574 0.369388 2.740061 0.000000 0.000000 0.000000 1.967089 0.367154 2.667788 4.325024 -0.650945 -0.306464 0.000000 0.000000 0.000000 1.967089 0.367154 2.667788 0.987454 -17.130227 -12.810562 1.797759 0.509535 -72.149966 0.000000 -0.000003 0.000016 0.000000 0.000000 0.000000 1.967089 0.367154 2.667788 0.944074 9.072990 16.974615 25.315500 4.137508 58.441387 -0.000003 0.810890 -0.000011 0.000000 0.000000 0.000000 
-1.429781 93.581558 6.721104 0.000000 0.000000 0.000000 -5.153766 3.782802 -1.072905 -20.249446 13.999553 14.814856 28.396552 -0.546083 4.987511 -4.816874 -7.134385 -13.203066 0.000000 0.000000 0.000000 -5.153766 3.782802 -1.072905 4.238367 -9.695124 5.085821 17.496967 -9.843546 -6.184055 -15.738895 -12.543829 5.004128 0.000000 0.000000 0.000000 -5.153766 3.782802 -1.072905 0.000000 0.000000 0.000000 2.627823 1.520376 2.345275 2.527650 0.357655 2.755404 0.000000 0.000000 0.000000 1.999163 0.354537 2.678583 4.231557 -0.596351 -0.271178 0.000000 0.000000 0.000000 1.999163 0.354537 2.678583 0.994347 -17.190633 -12.748662 1.966113 0.450954 -72.328807 0.000001 -0.000007 -0.000020 0.000000 0.000000 0.000000 1.999163 0.354537 2.678583 0.931289 9.222946 17.053492 24.477323 3.700234 58.305739 0.000002 0.487913 -0.000010 0.000000 0.000000 0.000000 
-1.447539 93.620468 6.667004 0.000000 0.000000 0.000000 -4.945127 3.146417 -1.224506 -20.195234 14.053721 14.878831 28.321596 -0.726348 4.966418 -4.927197 -6.386078 -13.100480 0.000000 0.000000 0.000000 -4.945127 3.146417 -1.224506 3.870497 -9.686268 4.953600 17.364706 -9.860479 -6.025449 -15.468104 -11.853346 4.988087 0.000000 0.000000 0.000000 -4.945127 3.146417 -1.224506 0.000000 0.000000 0.000000 2.615381 1.509828 2.349247 2.573555 0.342218 2.768952 0.000000 0.000000 0.000000 2.028915 0.338200 2.687727 4.145558 -0.543211 -0.232900 0.000000 0.000000 0.000000 2.028915 0.338200 2.687727 1.003052 -17.234463 -12.681459 2.156069 0.261909 -72.484297 0.000000 0.000000 0.000007 0.000000 0.000000 0.000000 2.028915 0.338200 2.687727 0.920455 9.348237 17.119401 23.686538 3.583357 58.107732 -0.000001 0.342353 0.000001 0.000000 0.000000 0.000000 
-1.464778 93.659958 6.608320 0.000000 0.000000 0.000000 -4.742961 2.519540 -1.370374 -20.140350 14.110746 14.943822 28.237148 -0.902089 4.938198 -5.025491 -5.655276 -12.990401 0.000000 0.000000 0.000000 -4.742961 2.519540 -1.370374 3.512102 -9.681173 4.821409 17.223497 -9.877044 -5.856357 -15.193240 -11.165489 4.961429 0.000000 0.000000 0.000000 -4.742961 2.519540 -1.370374 0.000000 0.000000 0.000000 2.602736 1.496987 2.352412 2.616108 0.322735 2.777670 0.000000 0.000000 0.000000 2.056161 0.317873 2.692146 4.067495 -0.491770 -0.191973 0.000000 0.000000 0.000000 2.056161 0.317873 2.692146 1.012981 -17.265349 -12.614403 2.352359 -0.034967 -72.612199 -0.000004 0.000007 0.000040 0.000000 0.000000 0.000000 2.056161 0.317873 2.692146 0.912525 9.450925 17.165358 22.950238 3.774228 57.874542 0.000003 0.370976 0.000029 0.000000 0.000000 0.000000 
-1.479465 93.701523 6.545614 0.000000 0.000000 0.000000 -4.548574 1.905071 -1.504506 -20.073952 14.171195 15.002493 28.126929 -1.073076 4.899015 -5.099758 -4.942228 -12.875672 0.000000 0.000000 0.000000 -4.548574 1.905071 -1.504506 3.164586 -9.682527 4.683532 17.073477 -9.892410 -5.681919 -14.914087 -10.482859 4.928771 0.000000 0.000000 0.000000 -4.548574 1.905071 -1.504506 0.000000 0.000000 0.000000 2.590126 1.481849 2.353779 2.655705 0.299550 2.779251 0.000000 0.000000 0.000000 2.081298 0.293986 2.689544 3.997071 -0.442232 -0.149266 0.000000 0.000000 0.000000 2.081298 0.293986 2.689544 1.023166 -17.291553 -12.550800 2.538234 -0.414398 -72.710430 -0.000001 -0.000000 0.000001 0.000000 0.000000 0.000000 2.081298 0.293986 2.689544 0.907761 9.539159 17.188163 22.256959 4.235345 57.634789 -0.000001 0.553531 0.000003 0.000000 0.000000 0.000000 
-1.490185 93.746025 6.479214 0.000000 0.000000 0.000000 -4.363473 1.305790 -1.623124 -19.989389 14.235044 15.049434 27.981432 -1.239579 4.847760 -5.142506 -4.247784 -12.759616 0.000000 0.000000 0.000000 -4.363473 1.305790 -1.623124 2.828676 -9.691093 4.537095 16.916703 -9.906106 -5.506995 -14.631500 -9.809842 4.893861 0.000000 0.000000 0.000000 -4.363473 1.305790 -1.623124 0.000000 0.000000 0.000000 2.577951 1.464755 2.349351 2.693039 0.273323 2.772668 0.000000 0.000000 0.000000 2.105015 0.267248 2.678888 3.933556 -0.394775 -0.106116 0.000000 0.000000 0.000000 2.105015 0.267248 2.678888 1.032583 -17.323983 -12.492427 2.698293 -0.853007 -72.778794 -0.000004 -0.000007 0.000033 0.000000 0.000000 0.000000 2.105015 0.267248 2.678888 0.905935 9.624706 17.187126 21.586376 4.919235 57.415164 -0.000002 0.859990 -0.000011 0.000000 0.000000 0.000000 
